HIERARCHY
ROOT Hips
{
	OFFSET 0.000000 0.000000 0.000000
	CHANNELS 6 Xposition Yposition Zposition Zrotation Xrotation Yrotation
	JOINT Spine1
	{
		OFFSET 0.000000 -0.000023 138.847351
		CHANNELS 6 Xposition Yposition Zposition Zrotation Xrotation Yrotation
		JOINT Neck
		{
			OFFSET 0.000000 -0.000018 110.694000
			CHANNELS 6 Xposition Yposition Zposition Zrotation Xrotation Yrotation
			JOINT Head
			{
				OFFSET 0.000000 -9.081811 70.384003
				CHANNELS 6 Xposition Yposition Zposition Zrotation Xrotation Yrotation
				End Site
				{
					OFFSET 0.000000 -0.000014 90.817780
				}
			}
		}
		JOINT LeftShoulder
		{
			OFFSET 18.288349 2.400605 89.379486
			CHANNELS 6 Xposition Yposition Zposition Zrotation Xrotation Yrotation
			JOINT LeftArm
			{
				OFFSET 65.257996 0.000000 0.000000
				CHANNELS 6 Xposition Yposition Zposition Zrotation Xrotation Yrotation
				JOINT LeftForeArm
				{
					OFFSET 127.960495 0.000000 0.000000
					CHANNELS 6 Xposition Yposition Zposition Zrotation Xrotation Yrotation
					JOINT LeftHand
					{
						OFFSET 118.922485 0.000000 0.000000
						CHANNELS 6 Xposition Yposition Zposition Zrotation Xrotation Yrotation
						End Site
						{
							OFFSET 68.113342 0.000000 0.000000
						}
					}
				}
			}
		}
		JOINT RightShoulder
		{
			OFFSET -18.036051 2.400605 89.379486
			CHANNELS 6 Xposition Yposition Zposition Zrotation Xrotation Yrotation
			JOINT RightArm
			{
				OFFSET -65.257996 0.000000 0.000000
				CHANNELS 6 Xposition Yposition Zposition Zrotation Xrotation Yrotation
				JOINT RightForeArm
				{
					OFFSET -127.960503 0.000000 0.000000
					CHANNELS 6 Xposition Yposition Zposition Zrotation Xrotation Yrotation
					JOINT RightHand
					{
						OFFSET -118.922516 0.000000 0.000000
						CHANNELS 6 Xposition Yposition Zposition Zrotation Xrotation Yrotation
						End Site
						{
							OFFSET -68.113342 0.000000 0.000000
						}
					}
				}
			}
		}
	}
	JOINT LeftUpLeg
	{
		OFFSET 45.409000 0.000000 0.000000
		CHANNELS 6 Xposition Yposition Zposition Zrotation Xrotation Yrotation
		JOINT LeftLeg
		{
			OFFSET 0.000000 0.000031 -190.974503
			CHANNELS 6 Xposition Yposition Zposition Zrotation Xrotation Yrotation
			JOINT LeftFoot
			{
				OFFSET 0.000000 0.000033 -200.215012
				CHANNELS 6 Xposition Yposition Zposition Zrotation Xrotation Yrotation
				JOINT LeftToeBase
				{
					OFFSET 0.000000 -68.113487 -29.515839
					CHANNELS 6 Xposition Yposition Zposition Zrotation Xrotation Yrotation
					End Site
					{
						OFFSET 0.000000 -18.163559 0.000000
					}
				}
			}
		}
	}
	JOINT RightUpLeg
	{
		OFFSET -45.409000 0.000000 0.000000
		CHANNELS 6 Xposition Yposition Zposition Zrotation Xrotation Yrotation
		JOINT RightLeg
		{
			OFFSET 0.000000 0.000031 -190.974503
			CHANNELS 6 Xposition Yposition Zposition Zrotation Xrotation Yrotation
			JOINT RightFoot
			{
				OFFSET 0.000000 0.000033 -200.215012
				CHANNELS 6 Xposition Yposition Zposition Zrotation Xrotation Yrotation
				JOINT RightToeBase
				{
					OFFSET 0.000000 -68.113487 -29.515839
					CHANNELS 6 Xposition Yposition Zposition Zrotation Xrotation Yrotation
					End Site
					{
						OFFSET 0.000000 -18.163559 0.000000
					}
				}
			}
		}
	}
}
MOTION
Frames: 10
Frame Time: 0.041667
41.146328 5.378841 370.995056 -2.210381 11.477554 -1.159163 -0.000000 -0.000025 138.847351 -0.010676 -6.014959 -5.399386 -0.000011 -0.000018 110.694016 3.441823 5.320265 -3.455728 0.000015 -9.081801 70.384094 4.133098 7.340054 4.076732 18.288342 2.400608 89.379509 0.357274 -8.656443 -21.287855 65.257988 -0.000012 -0.000018 -6.651289 -10.376160 10.894593 127.960510 -0.000006 0.000055 -0.976673 -8.404873 -1.663201 118.922508 -0.000015 0.000122 3.889938 -8.169255 7.417984 -18.036047 2.400605 89.379570 -5.675596 -4.098220 18.038805 -65.258011 -0.000005 0.000075 21.626792 21.095874 -3.228914 -127.960487 -0.000003 0.000005 70.310063 37.849787 47.252058 -118.922569 -0.000003 -0.000009 5.917281 5.837976 26.370689 45.409000 0.000000 0.000031 20.492820 -33.167047 -14.798841 0.000004 0.000038 -190.974503 9.851994 40.006276 8.396072 -0.000007 0.000011 -200.214996 18.340880 -6.291919 3.884688 0.000010 -68.113472 -29.515837 -0.000001 -0.000002 0.000000 -45.409000 0.000001 0.000027 5.498383 -24.044259 43.107957 -0.000008 0.000030 -190.974533 -22.463492 41.388556 -29.123042 -0.000004 0.000021 -200.214981 -17.649117 5.218942 -4.501547 -0.000008 -68.113495 -29.515835 -0.000002 -0.000002 0.000002 
41.431763 5.259912 371.311493 -2.311313 11.463400 -1.138799 -0.000003 -0.000025 138.847397 0.034308 -6.031469 -5.428998 0.000003 -0.000015 110.694046 3.442406 5.344193 -3.485728 -0.000017 -9.081768 70.383957 4.137937 7.356252 4.123995 18.288351 2.400608 89.379486 0.360055 -8.664045 -21.304069 65.257996 -0.000002 0.000043 -6.633874 -10.251523 10.962305 127.960510 0.000007 0.000022 -1.024185 -8.482209 -1.717486 118.922554 0.000018 0.000078 3.941805 -8.245029 7.401704 -18.036051 2.400609 89.379517 -5.674772 -4.085226 18.035944 -65.258003 -0.000006 0.000034 21.647487 21.125410 -3.222832 -127.960457 -0.000051 -0.000072 70.275994 37.819782 47.265029 -118.922539 -0.000017 0.000029 5.935197 5.819134 26.412958 45.409004 0.000004 0.000051 20.518080 -33.008586 -14.765216 0.000015 0.000037 -190.974533 9.981271 39.843909 8.329446 0.000002 0.000036 -200.214996 18.336630 -6.250379 3.837713 0.000002 -68.113487 -29.515841 -0.000000 0.000001 0.000000 -45.409004 0.000000 0.000008 5.445075 -24.014472 43.378357 -0.000002 0.000034 -190.974503 -22.550187 41.436449 -29.252601 0.000003 0.000035 -200.215012 -17.095740 6.097338 -4.882120 0.000000 -68.113480 -29.515835 -0.000001 -0.000003 0.000002 
41.688293 5.151548 371.624329 -2.413221 11.442782 -1.139352 -0.000002 -0.000036 138.847336 0.112059 -6.118398 -5.422632 0.000012 -0.000016 110.694038 3.429566 5.439052 -3.530675 0.000021 -9.081764 70.384010 4.125510 7.398431 4.155482 18.288368 2.400601 89.379494 0.367016 -8.613078 -21.298313 65.258011 0.000003 -0.000001 -6.643298 -10.278549 10.991918 127.960526 0.000016 -0.000009 -1.025780 -8.467064 -1.736357 118.922485 -0.000014 -0.000035 3.926694 -8.230370 7.420848 -18.036045 2.400608 89.379539 -5.695545 -4.030849 17.988425 -65.258011 -0.000005 -0.000178 21.679015 21.154137 -3.211807 -127.960487 -0.000001 0.000078 70.289641 37.799196 47.227866 -118.922546 0.000031 0.000031 5.958044 5.821365 26.387314 45.409000 -0.000002 0.000010 20.577927 -32.840004 -14.691412 0.000007 0.000041 -190.974533 10.105262 39.668444 8.244779 -0.000003 0.000046 -200.214966 18.350106 -6.177754 3.861369 0.000003 -68.113457 -29.515837 -0.000002 -0.000001 -0.000001 -45.409004 -0.000007 -0.000008 5.418723 -23.953506 43.659420 -0.000029 0.000035 -190.974518 -22.611521 41.439874 -29.380967 0.000003 0.000044 -200.215027 -16.564901 6.931771 -5.268231 -0.000004 -68.113464 -29.515839 0.000003 0.000000 0.000000 
41.915459 5.086998 371.959229 -2.514713 11.432730 -1.114500 0.000003 -0.000021 138.847382 0.160570 -6.142685 -5.452066 0.000006 -0.000018 110.693947 3.436521 5.451264 -3.530280 -0.000012 -9.081785 70.383919 4.130757 7.437853 4.150501 18.288370 2.400608 89.379478 0.366569 -8.614504 -21.298500 65.258018 0.000002 0.000127 -6.600309 -10.410306 10.990538 127.960503 -0.000001 -0.000011 -0.995840 -8.379967 -1.684796 118.922523 -0.000023 0.000054 3.922995 -8.142309 7.428641 -18.036047 2.400603 89.379517 -5.725789 -4.008224 17.979754 -65.258026 -0.000001 0.000029 21.740958 21.141710 -3.205942 -127.960495 0.000001 -0.000014 70.263447 37.779603 47.219123 -118.922539 -0.000025 0.000062 5.918411 5.812965 26.359833 45.409004 0.000000 0.000031 20.600306 -32.704964 -14.661372 -0.000027 0.000018 -190.974533 10.340628 39.519188 8.094913 -0.000014 0.000023 -200.215012 18.271601 -6.084479 3.870142 0.000007 -68.113480 -29.515839 -0.000002 0.000000 -0.000001 -45.409000 0.000002 0.000042 5.452676 -23.874397 43.893907 -0.000018 0.000030 -190.974548 -22.812101 41.448573 -29.401659 -0.000009 0.000029 -200.215012 -16.052857 7.757273 -5.764822 -0.000008 -68.113487 -29.515871 -0.000007 0.000002 -0.000000 
42.139160 4.975102 372.253143 -2.607877 11.410686 -1.096338 0.000000 -0.000018 138.847351 0.180697 -6.139841 -5.488386 0.000004 -0.000020 110.693977 3.448282 5.477282 -3.498640 0.000005 -9.081819 70.384125 4.138237 7.424329 4.129460 18.288357 2.400608 89.379463 0.370718 -8.647456 -21.271347 65.258003 0.000007 -0.000024 -6.563866 -10.436860 10.977073 127.960487 0.000004 0.000052 -0.981669 -8.395782 -1.658631 118.922546 0.000008 0.000007 3.903092 -8.157869 7.461346 -18.036041 2.400609 89.379501 -5.687987 -4.049823 18.005762 -65.258011 -0.000002 -0.000011 21.750025 21.110033 -3.231136 -127.960464 -0.000035 -0.000044 70.366392 37.769481 47.077728 -118.922546 0.000018 0.000046 5.913007 5.856159 26.375040 45.408993 -0.000002 -0.000006 20.651656 -32.547894 -14.597723 -0.000020 0.000028 -190.974487 10.226829 39.332563 8.130784 -0.000004 0.000026 -200.215027 18.437274 -6.042974 3.875911 0.000011 -68.113480 -29.515839 -0.000001 -0.000000 -0.000001 -45.408997 0.000000 0.000002 5.491144 -23.783738 44.158563 0.000003 0.000039 -190.974487 -22.977313 41.487471 -29.469681 0.000002 0.000030 -200.214981 -15.551077 8.607181 -6.191893 0.000005 -68.113472 -29.515867 -0.000002 -0.000002 -0.000001 
42.330444 4.911232 372.558990 -2.696394 11.400091 -1.073877 0.000001 -0.000030 138.847351 0.198416 -6.085311 -5.491127 0.000011 -0.000009 110.694038 3.458140 5.482481 -3.498872 -0.000005 -9.081814 70.384102 4.150446 7.344867 4.129558 18.288370 2.400612 89.379517 0.365623 -8.684446 -21.295029 65.257973 -0.000008 0.000050 -6.515583 -10.423538 10.968817 127.960518 0.000023 0.000133 -0.968074 -8.405973 -1.648028 118.922470 -0.000039 -0.000011 3.908814 -8.167218 7.467229 -18.036036 2.400609 89.379517 -5.610416 -4.099159 18.026671 -65.258018 -0.000016 -0.000073 21.737014 21.177708 -3.287966 -127.960503 -0.000000 -0.000015 70.312734 37.750309 47.146873 -118.922546 -0.000049 -0.000011 5.934847 5.810484 26.352477 45.409004 0.000000 0.000049 20.683556 -32.416498 -14.547944 0.000007 0.000037 -190.974533 10.360436 39.164697 8.018462 -0.000011 0.000057 -200.214981 18.428469 -5.968581 3.876215 0.000009 -68.113510 -29.515839 0.000002 0.000001 -0.000000 -45.409000 -0.000004 0.000023 5.511450 -23.716309 44.370070 -0.000008 0.000039 -190.974487 -22.999417 41.427631 -29.521864 -0.000003 0.000024 -200.215027 -15.074106 9.412827 -6.754967 0.000011 -68.113503 -29.515871 -0.000000 -0.000001 -0.000004 
42.516220 4.839674 372.854309 -2.770358 11.393091 -1.056519 -0.000002 -0.000020 138.847336 0.207336 -6.090953 -5.527356 0.000005 -0.000015 110.694099 3.478486 5.449014 -3.471825 0.000005 -9.081814 70.384071 4.167553 7.414362 4.112166 18.288351 2.400602 89.379524 0.404335 -8.688584 -21.298437 65.257980 -0.000000 0.000050 -6.506369 -10.496526 11.020019 127.960518 -0.000002 -0.000024 -0.955467 -8.371856 -1.666834 118.922478 -0.000031 0.000052 3.916361 -8.132692 7.463972 -18.036053 2.400603 89.379532 -5.630446 -4.087675 18.026283 -65.258003 -0.000005 -0.000022 21.754076 21.154469 -3.233656 -127.960464 -0.000023 -0.000027 70.350409 37.717937 47.087830 -118.922577 0.000057 0.000002 5.957539 5.801269 26.331571 45.408997 0.000000 -0.000039 20.669694 -32.281185 -14.522881 0.000007 0.000027 -190.974503 10.492287 39.000711 7.929045 -0.000024 0.000034 -200.215027 18.405488 -5.893509 3.872766 0.000006 -68.113510 -29.515839 -0.000002 0.000001 -0.000000 -45.409004 0.000009 -0.000010 5.537583 -23.625510 44.542280 -0.000004 0.000033 -190.974533 -23.281207 41.397333 -29.396516 0.000012 0.000026 -200.215012 -14.525299 10.171767 -7.364170 -0.000008 -68.113480 -29.515804 -0.000003 -0.000004 -0.000002 
42.699951 4.764013 373.121399 -2.838480 11.385947 -1.045493 -0.000007 -0.000025 138.847351 0.236564 -6.190488 -5.523275 0.000011 -0.000016 110.694008 3.483990 5.551390 -3.506149 0.000002 -9.081810 70.384018 4.173519 7.413930 4.135293 18.288364 2.400613 89.379471 0.415298 -8.627200 -21.322905 65.257980 -0.000003 0.000099 -6.509278 -10.452173 11.055386 127.960518 0.000026 0.000083 -0.951562 -8.383976 -1.680379 118.922447 0.000001 0.000000 3.940002 -8.143591 7.456410 -18.036039 2.400607 89.379456 -5.642843 -4.045847 17.995141 -65.258034 -0.000006 0.000034 21.780153 21.246673 -3.221740 -127.960464 -0.000025 0.000013 70.296635 37.720758 47.126140 -118.922539 0.000021 0.000004 5.970572 5.811565 26.338910 45.409000 0.000000 -0.000023 20.650249 -32.152272 -14.489194 0.000003 0.000039 -190.974533 10.602216 38.845413 7.868643 -0.000006 0.000045 -200.214996 18.458199 -5.833675 3.852839 0.000010 -68.113472 -29.515841 0.000004 0.000002 -0.000000 -45.409004 0.000005 -0.000004 5.591380 -23.537935 44.766446 -0.000006 0.000028 -190.974518 -23.421613 41.383761 -29.413202 0.000000 0.000031 -200.214996 -14.123772 10.921288 -8.263217 -0.000011 -68.113495 -29.515833 -0.000004 -0.000005 0.000000 
42.855522 4.677488 373.412842 -2.909653 11.345147 -1.019053 0.000000 -0.000013 138.847351 0.277791 -6.186345 -5.522592 0.000009 -0.000022 110.694038 3.469489 5.588865 -3.560356 -0.000000 -9.081813 70.383926 4.166499 7.401470 4.207363 18.288363 2.400598 89.379448 0.410855 -8.618404 -21.349356 65.257957 -0.000001 0.000024 -6.495145 -10.466677 11.051743 127.960503 0.000015 -0.000059 -0.941479 -8.361224 -1.661129 118.922516 0.000001 0.000019 3.951100 -8.119048 7.478670 -18.036041 2.400602 89.379570 -5.673131 -4.004083 17.987600 -65.258018 -0.000010 0.000042 21.797060 21.137347 -3.226722 -127.960480 -0.000053 0.000046 70.416682 37.715543 46.977782 -118.922600 0.000005 -0.000006 6.028401 5.869175 26.337057 45.409000 0.000008 -0.000004 20.627895 -31.988785 -14.484622 0.000007 0.000020 -190.974503 10.544181 38.645624 7.890833 0.000006 0.000030 -200.215012 18.595494 -5.752523 3.870686 0.000013 -68.113480 -29.515839 0.000002 0.000000 0.000001 -45.409000 0.000005 0.000006 5.632612 -23.449723 44.912080 -0.000006 0.000035 -190.974503 -23.647419 41.386117 -29.298489 -0.000008 0.000048 -200.214996 -13.722963 11.625609 -8.906659 -0.000013 -68.113495 -29.515841 -0.000005 0.000001 0.000000 
43.005764 4.618144 373.659546 -2.959580 11.356850 -1.007585 0.000002 -0.000015 138.847366 0.276837 -6.201920 -5.546552 0.000005 -0.000022 110.693977 3.462982 5.575781 -3.530015 0.000011 -9.081799 70.384041 4.158173 7.412819 4.218934 18.288364 2.400605 89.379501 0.408159 -8.625935 -21.308754 65.257927 0.000002 -0.000074 -6.480369 -10.472725 11.019742 127.960510 0.000008 0.000018 -0.919765 -8.364836 -1.671914 118.922546 -0.000010 -0.000028 3.907523 -8.125243 7.478999 -18.036053 2.400605 89.379501 -5.681414 -4.030049 17.995732 -65.258003 0.000005 -0.000024 21.806123 21.322046 -3.204859 -127.960487 -0.000018 -0.000033 70.234562 37.720748 47.209246 -118.922577 -0.000006 0.000009 6.038530 5.791930 26.273807 45.409000 0.000004 -0.000019 20.621880 -31.896980 -14.433549 0.000015 0.000032 -190.974503 10.627366 38.503443 7.811675 -0.000004 0.000022 -200.214981 18.616478 -5.693472 3.880066 0.000021 -68.113480 -29.515835 -0.000002 -0.000002 -0.000001 -45.408997 0.000003 0.000008 5.600715 -23.468387 45.048926 0.000013 0.000018 -190.974503 -23.865963 41.420306 -29.120764 0.000003 0.000037 -200.215027 -13.189495 12.302575 -9.621146 0.000001 -68.113487 -29.515804 -0.000003 -0.000003 -0.000000 
